<svg width="177" height="41" viewBox="0 0 177 41" fill="none" xmlns="http://www.w3.org/2000/svg">
<path d="M8.16977 0.0302734V33.254H29.9558V40.8791H0V0.0302734H8.16977Z" fill="black"/>
<path d="M36.5752 40.8792V0.0543399L66.5909 0.0244141V7.64953H44.7509V16.3639H61.1204V23.9651H44.7509V33.2541H66.537V40.8792H36.5812H36.5752Z" fill="black"/>
<path d="M88.263 19.6078L73.9704 0.0302734H83.5587L93.0931 13.0241L102.621 0.0302734H112.21L97.9111 19.6138L113.514 40.8851H103.818L93.0871 26.2034L82.3556 40.8851H72.6597L88.263 19.6138V19.6078Z" fill="black"/>
<path d="M118.824 0H126.97V40.8788H118.824V0Z" fill="black"/>
<path d="M135.163 40.8791V0.0302734H137.886L155.591 20.1824L173.319 0.0302734H176.042V40.8791H167.872L167.842 17.1838L155.585 30.8001L143.327 17.1838V40.8791H135.157H135.163Z" fill="black"/>
</svg>
