<svg width="1920" height="720" viewBox="0 0 1920 720" fill="none" xmlns="http://www.w3.org/2000/svg">
<rect width="1920" height="720" fill="#F6F6F6"/>
<path fill-rule="evenodd" clip-rule="evenodd" d="M1288.47 111.391H1450.74L1655.69 229.718V466.403L1450.67 570.07H1288.57L1068.15 474.938V229.67L1288.47 111.391ZM1289.63 115.993L1072.75 232.422V471.912L1289.52 565.468H1449.58L1651.08 463.573V232.375L1449.51 115.993H1289.63Z" fill="url(#paint0_linear_114_904)"/>
<path fill-rule="evenodd" clip-rule="evenodd" d="M1364.07 76.6526L1430.83 205.218H1612.95L1515.45 368.188L1579.07 490.716H1442.14L1364.01 621.293L1283.59 490.716H1129.53L1203.33 360.417L1107.75 205.218H1291.25L1364.07 76.6526ZM1288.64 209.821H1120.1L1245.56 285.868L1288.64 209.821ZM1249.5 288.254L1293.93 209.821H1361.68V350.91L1357.22 353.547L1249.5 288.254ZM1243.29 289.874L1118.82 214.427L1205.92 355.845L1243.29 289.874ZM1208.68 360.319L1247.23 292.261L1352.72 356.204L1245.25 419.7L1208.68 360.319ZM1206.09 364.89L1139.73 482.049L1241.29 422.042L1206.09 364.89ZM1243.7 425.961L1141.89 486.114H1280.75L1243.7 425.961ZM1288.99 490.716L1361.68 608.735V490.716H1288.99ZM1361.68 486.114H1286.16L1247.67 423.619L1357.19 358.91L1361.68 361.634V486.114ZM1366.28 490.716V608.531L1436.77 490.716H1366.28ZM1439.53 486.114H1366.28V364.424L1473.47 429.391L1439.53 486.114ZM1444.89 486.114H1567.05L1477.4 431.777L1444.89 486.114ZM1479.76 427.828L1569.46 482.195L1512.67 372.828L1479.76 427.828ZM1512.96 363.389L1602.28 214.104L1474.61 289.535L1512.96 363.389ZM1470.64 291.879L1510.18 368.03L1475.83 425.442L1366.28 359.042V353.536L1470.64 291.879ZM1472.48 285.444L1600.48 209.821H1433.22L1472.48 285.444ZM1428.03 209.821L1468.52 287.789L1366.28 348.191V209.821H1428.03ZM1425.64 205.218L1366.28 90.9016V205.218H1425.64ZM1361.68 205.218H1296.53L1361.68 90.2077V205.218Z" fill="url(#paint1_linear_114_904)"/>
<path d="M1282.14 98.3511C1282.14 77.1704 1299.31 60 1320.5 60H1420.21C1441.39 60 1458.56 77.1704 1458.56 98.3511V98.3511C1458.56 119.532 1441.39 136.702 1420.21 136.702H1320.5C1299.31 136.702 1282.14 119.532 1282.14 98.3511V98.3511Z" fill="url(#paint2_radial_114_904)"/>
<path d="M1279.08 581.575C1279.08 560.395 1296.25 543.224 1317.43 543.224H1417.14C1438.32 543.224 1455.49 560.395 1455.49 581.575V581.575C1455.49 602.756 1438.32 619.927 1417.14 619.927H1317.43C1296.25 619.927 1279.08 602.756 1279.08 581.575V581.575Z" fill="url(#paint3_radial_114_904)"/>
<path d="M978.404 216.473C978.404 195.292 995.575 178.121 1016.76 178.121H1116.47C1137.65 178.121 1154.82 195.292 1154.82 216.473V216.473C1154.82 237.653 1137.65 254.824 1116.47 254.824H1016.76C995.575 254.824 978.404 237.653 978.404 216.473V216.473Z" fill="url(#paint4_radial_114_904)"/>
<path d="M981.473 469.59C981.473 448.409 998.643 431.239 1019.82 431.239H1119.54C1140.72 431.239 1157.89 448.409 1157.89 469.59V469.59C1157.89 490.771 1140.72 507.941 1119.54 507.941H1019.82C998.643 507.941 981.473 490.771 981.473 469.59V469.59Z" fill="url(#paint5_radial_114_904)"/>
<path d="M1565.94 216.473C1565.94 195.292 1583.11 178.121 1604.29 178.121H1704.01C1725.19 178.121 1742.36 195.292 1742.36 216.473V216.473C1742.36 237.653 1725.19 254.824 1704.01 254.824H1604.29C1583.11 254.824 1565.94 237.653 1565.94 216.473V216.473Z" fill="url(#paint6_radial_114_904)"/>
<path d="M1558.27 469.59C1558.27 448.409 1575.44 431.239 1596.62 431.239H1696.34C1717.52 431.239 1734.69 448.409 1734.69 469.59V469.59C1734.69 490.771 1717.52 507.941 1696.34 507.941H1596.62C1575.44 507.941 1558.27 490.771 1558.27 469.59V469.59Z" fill="url(#paint7_radial_114_904)"/>
<path d="M1346.09 107.893C1343.75 107.893 1341.76 107.433 1340.1 106.512C1338.45 105.592 1337.17 104.303 1336.27 102.646C1335.39 100.969 1334.95 98.9954 1334.95 96.725C1334.95 94.4751 1335.39 92.5217 1336.27 90.865C1337.17 89.1878 1338.45 87.8889 1340.1 86.9685C1341.76 86.0481 1343.75 85.5879 1346.09 85.5879C1347.52 85.5879 1348.89 85.8129 1350.2 86.2628C1351.51 86.7128 1352.58 87.3264 1353.42 88.1037L1351.95 91.8774C1351.03 91.1616 1350.1 90.64 1349.15 90.3127C1348.23 89.965 1347.26 89.7911 1346.24 89.7911C1344.17 89.7911 1342.61 90.3945 1341.55 91.6013C1340.5 92.7876 1339.98 94.4956 1339.98 96.725C1339.98 98.9545 1340.5 100.673 1341.55 101.879C1342.61 103.086 1344.17 103.69 1346.24 103.69C1347.26 103.69 1348.23 103.526 1349.15 103.199C1350.1 102.851 1351.03 102.319 1351.95 101.603L1353.42 105.377C1352.58 106.134 1351.51 106.747 1350.2 107.218C1348.89 107.668 1347.52 107.893 1346.09 107.893Z" fill="#054962"/>
<path d="M1356.58 107.555V85.9253H1366.46C1368.88 85.9253 1370.74 86.5083 1372.05 87.6742C1373.36 88.84 1374.01 90.4661 1374.01 92.5524C1374.01 94.1683 1373.59 95.5182 1372.75 96.6023C1371.93 97.6659 1370.76 98.392 1369.22 98.7807C1370.31 99.1079 1371.2 99.8954 1371.89 101.143L1375.39 107.555H1370.14L1366.4 100.652C1366.09 100.1 1365.72 99.7215 1365.27 99.517C1364.82 99.292 1364.28 99.1795 1363.67 99.1795H1361.34V107.555H1356.58ZM1361.34 95.7432H1365.6C1368.16 95.7432 1369.44 94.7205 1369.44 92.6751C1369.44 90.6502 1368.16 89.6377 1365.6 89.6377H1361.34V95.7432Z" fill="#054962"/>
<path d="M1378.05 107.555V85.9253H1382.01L1389.31 99.2102L1396.58 85.9253H1400.48V107.555H1396.15V94.3626L1390.57 104.303H1387.9L1382.35 94.4546V107.555H1378.05Z" fill="#054962"/>
<path d="M1345.41 592.651C1343.07 592.651 1341.08 592.191 1339.42 591.271C1337.77 590.35 1336.49 589.062 1335.59 587.405C1334.71 585.728 1334.27 583.754 1334.27 581.483C1334.27 579.233 1334.71 577.28 1335.59 575.623C1336.49 573.946 1337.77 572.647 1339.42 571.727C1341.08 570.806 1343.07 570.346 1345.41 570.346C1346.84 570.346 1348.21 570.571 1349.52 571.021C1350.83 571.471 1351.9 572.085 1352.74 572.862L1351.27 576.636C1350.35 575.92 1349.42 575.398 1348.47 575.071C1347.55 574.723 1346.58 574.549 1345.56 574.549C1343.49 574.549 1341.93 575.153 1340.87 576.36C1339.82 577.546 1339.3 579.254 1339.3 581.483C1339.3 583.713 1339.82 585.431 1340.87 586.638C1341.93 587.845 1343.49 588.448 1345.56 588.448C1346.58 588.448 1347.55 588.284 1348.47 587.957C1349.42 587.609 1350.35 587.078 1351.27 586.362L1352.74 590.135C1351.9 590.892 1350.83 591.506 1349.52 591.976C1348.21 592.426 1346.84 592.651 1345.41 592.651Z" fill="#054962"/>
<path d="M1355.96 592.314V570.684H1359.92L1367.22 583.969L1374.5 570.684H1378.39V592.314H1374.07V579.121L1368.48 589.062H1365.81L1360.26 579.213V592.314H1355.96Z" fill="#054962"/>
<path d="M1390.56 592.651C1388.86 592.651 1387.25 592.436 1385.74 592.007C1384.25 591.577 1383 590.994 1382 590.258L1383.38 586.515C1384.34 587.19 1385.43 587.722 1386.66 588.11C1387.91 588.499 1389.21 588.693 1390.56 588.693C1392.03 588.693 1393.08 588.468 1393.72 588.018C1394.37 587.548 1394.7 586.965 1394.7 586.27C1394.7 585.676 1394.47 585.206 1394.02 584.858C1393.57 584.511 1392.79 584.214 1391.66 583.969L1388.19 583.232C1384.33 582.414 1382.4 580.41 1382.4 577.219C1382.4 575.848 1382.76 574.652 1383.5 573.629C1384.24 572.586 1385.26 571.778 1386.57 571.205C1387.9 570.633 1389.43 570.346 1391.17 570.346C1392.66 570.346 1394.06 570.561 1395.37 570.99C1396.68 571.42 1397.77 572.023 1398.63 572.801L1397.24 576.298C1395.57 574.969 1393.53 574.304 1391.14 574.304C1389.85 574.304 1388.85 574.56 1388.13 575.071C1387.44 575.562 1387.09 576.206 1387.09 577.004C1387.09 577.597 1387.3 578.078 1387.73 578.446C1388.16 578.814 1388.91 579.111 1389.97 579.336L1393.44 580.072C1397.41 580.931 1399.39 582.874 1399.39 585.901C1399.39 587.251 1399.02 588.438 1398.29 589.46C1397.57 590.463 1396.55 591.25 1395.22 591.823C1393.91 592.375 1392.36 592.651 1390.56 592.651Z" fill="#054962"/>
<path d="M1040.89 228.745V207.115H1055.71V210.827H1045.43V215.89H1055.03V219.633H1045.43V225.033H1055.71V228.745H1040.89Z" fill="#054962"/>
<path d="M1059.51 228.745V207.115H1069.39C1071.81 207.115 1073.67 207.698 1074.98 208.864C1076.29 210.03 1076.94 211.656 1076.94 213.742C1076.94 215.358 1076.52 216.708 1075.68 217.792C1074.86 218.856 1073.69 219.582 1072.15 219.97C1073.24 220.298 1074.13 221.085 1074.82 222.333L1078.32 228.745H1073.07L1069.33 221.842C1069.02 221.29 1068.65 220.911 1068.2 220.707C1067.75 220.482 1067.21 220.369 1066.6 220.369H1064.27V228.745H1059.51ZM1064.27 216.933H1068.53C1071.09 216.933 1072.37 215.91 1072.37 213.865C1072.37 211.84 1071.09 210.827 1068.53 210.827H1064.27V216.933Z" fill="#054962"/>
<path d="M1080.92 228.745V207.115H1090.8C1093.21 207.115 1095.08 207.729 1096.38 208.956C1097.69 210.163 1098.35 211.85 1098.35 214.018C1098.35 216.186 1097.69 217.884 1096.38 219.111C1095.08 220.338 1093.21 220.952 1090.8 220.952H1085.68V228.745H1080.92ZM1085.68 217.27H1090C1092.52 217.27 1093.78 216.186 1093.78 214.018C1093.78 211.891 1092.52 210.827 1090 210.827H1085.68V217.27Z" fill="#054962"/>
<path d="M1045.04 479.132C1043.34 479.132 1041.74 478.917 1040.22 478.488C1038.73 478.058 1037.48 477.475 1036.48 476.739L1037.86 472.996C1038.82 473.671 1039.91 474.202 1041.14 474.591C1042.39 474.98 1043.69 475.174 1045.04 475.174C1046.51 475.174 1047.56 474.949 1048.2 474.499C1048.85 474.029 1049.18 473.446 1049.18 472.75C1049.18 472.157 1048.96 471.687 1048.51 471.339C1048.06 470.991 1047.27 470.695 1046.14 470.449L1042.68 469.713C1038.81 468.895 1036.88 466.89 1036.88 463.699C1036.88 462.329 1037.25 461.132 1037.98 460.11C1038.72 459.067 1039.74 458.259 1041.05 457.686C1042.38 457.113 1043.91 456.827 1045.65 456.827C1047.15 456.827 1048.55 457.042 1049.86 457.471C1051.16 457.901 1052.25 458.504 1053.11 459.281L1051.73 462.779C1050.05 461.449 1048.01 460.785 1045.62 460.785C1044.33 460.785 1043.33 461.04 1042.61 461.552C1041.92 462.043 1041.57 462.687 1041.57 463.485C1041.57 464.078 1041.79 464.558 1042.22 464.927C1042.65 465.295 1043.39 465.591 1044.46 465.816L1047.92 466.553C1051.89 467.412 1053.87 469.355 1053.87 472.382C1053.87 473.732 1053.51 474.918 1052.77 475.941C1052.05 476.943 1051.03 477.731 1049.7 478.303C1048.39 478.856 1046.84 479.132 1045.04 479.132Z" fill="#054962"/>
<path d="M1067.5 479.132C1065.17 479.132 1063.17 478.672 1061.52 477.751C1059.86 476.831 1058.58 475.542 1057.68 473.885C1056.8 472.208 1056.36 470.234 1056.36 467.964C1056.36 465.714 1056.8 463.761 1057.68 462.104C1058.58 460.427 1059.86 459.128 1061.52 458.207C1063.17 457.287 1065.17 456.827 1067.5 456.827C1068.93 456.827 1070.3 457.052 1071.61 457.502C1072.92 457.952 1073.99 458.565 1074.83 459.343L1073.36 463.116C1072.44 462.401 1071.51 461.879 1070.57 461.552C1069.65 461.204 1068.68 461.03 1067.65 461.03C1065.59 461.03 1064.02 461.634 1062.96 462.84C1061.92 464.027 1061.4 465.735 1061.4 467.964C1061.4 470.193 1061.92 471.912 1062.96 473.118C1064.02 474.325 1065.59 474.929 1067.65 474.929C1068.68 474.929 1069.65 474.765 1070.57 474.438C1071.51 474.09 1072.44 473.558 1073.36 472.842L1074.83 476.616C1073.99 477.373 1072.92 477.986 1071.61 478.457C1070.3 478.907 1068.93 479.132 1067.5 479.132Z" fill="#054962"/>
<path d="M1078.06 478.794V457.164H1082.02L1089.32 470.449L1096.59 457.164H1100.49V478.794H1096.16V465.602L1090.58 475.542H1087.91L1082.35 465.694V478.794H1078.06Z" fill="#054962"/>
<path d="M1608.04 480.328V458.698H1612.8V467.381H1622.86V458.698H1627.62V480.328H1622.86V471.339H1612.8V480.328H1608.04Z" fill="#054962"/>
<path d="M1632.03 480.328V458.698H1641.91C1644.32 458.698 1646.18 459.281 1647.49 460.447C1648.8 461.613 1649.46 463.239 1649.46 465.325C1649.46 466.941 1649.04 468.291 1648.2 469.375C1647.38 470.439 1646.2 471.165 1644.67 471.554C1645.75 471.881 1646.64 472.668 1647.34 473.916L1650.84 480.328H1645.59L1641.85 473.425C1641.54 472.873 1641.16 472.495 1640.71 472.29C1640.26 472.065 1639.73 471.953 1639.12 471.953H1636.78V480.328H1632.03ZM1636.78 468.516H1641.05C1643.61 468.516 1644.88 467.494 1644.88 465.448C1644.88 463.423 1643.61 462.411 1641.05 462.411H1636.78V468.516Z" fill="#054962"/>
<path d="M1653.5 480.328V458.698H1657.46L1664.76 471.983L1672.03 458.698H1675.93V480.328H1671.6V467.136L1666.02 477.076H1663.35L1657.79 467.228V480.328H1653.5Z" fill="#054962"/>
<path d="M1688.09 480.666C1686.39 480.666 1684.79 480.451 1683.27 480.022C1681.78 479.592 1680.53 479.009 1679.53 478.273L1680.91 474.53C1681.87 475.205 1682.97 475.737 1684.19 476.125C1685.44 476.514 1686.74 476.708 1688.09 476.708C1689.56 476.708 1690.62 476.483 1691.25 476.033C1691.91 475.563 1692.23 474.98 1692.23 474.284C1692.23 473.691 1692.01 473.221 1691.56 472.873C1691.11 472.525 1690.32 472.229 1689.2 471.983L1685.73 471.247C1681.86 470.429 1679.93 468.424 1679.93 465.233C1679.93 463.863 1680.3 462.666 1681.03 461.644C1681.77 460.601 1682.79 459.793 1684.1 459.22C1685.43 458.647 1686.97 458.361 1688.7 458.361C1690.2 458.361 1691.6 458.576 1692.91 459.005C1694.22 459.435 1695.3 460.038 1696.16 460.815L1694.78 464.313C1693.1 462.983 1691.07 462.319 1688.67 462.319C1687.38 462.319 1686.38 462.574 1685.67 463.086C1684.97 463.577 1684.62 464.221 1684.62 465.019C1684.62 465.612 1684.84 466.092 1685.27 466.461C1685.7 466.829 1686.44 467.125 1687.51 467.35L1690.97 468.087C1694.94 468.946 1696.93 470.889 1696.93 473.916C1696.93 475.266 1696.56 476.452 1695.82 477.475C1695.11 478.477 1694.08 479.265 1692.75 479.838C1691.45 480.39 1689.89 480.666 1688.09 480.666Z" fill="#054962"/>
<path d="M1623.1 227.211V205.581H1632.98C1635.39 205.581 1637.25 206.195 1638.56 207.422C1639.87 208.629 1640.53 210.316 1640.53 212.484C1640.53 214.652 1639.87 216.35 1638.56 217.577C1637.25 218.804 1635.39 219.418 1632.98 219.418H1627.86V227.211H1623.1ZM1627.86 215.736H1632.18C1634.7 215.736 1635.95 214.652 1635.95 212.484C1635.95 210.357 1634.7 209.293 1632.18 209.293H1627.86V215.736Z" fill="#054962"/>
<path d="M1643.52 227.211V205.581H1648.28V223.192H1658.28V227.211H1643.52Z" fill="#054962"/>
<path d="M1661.21 227.211V205.581H1665.17L1672.47 218.866L1679.75 205.581H1683.64V227.211H1679.32V214.018L1673.73 223.959H1671.06L1665.51 214.11V227.211H1661.21Z" fill="#054962"/>
<path d="M128.416 327V293.16H141.184C144.8 293.16 147.552 294.024 149.44 295.752C151.36 297.48 152.32 299.944 152.32 303.144C152.32 306.312 151.36 308.776 149.44 310.536C147.552 312.264 144.8 313.128 141.184 313.128H131.344V327H128.416ZM131.344 310.536H140.944C146.544 310.536 149.344 308.072 149.344 303.144C149.344 298.184 146.544 295.704 140.944 295.704H131.344V310.536ZM166.026 327.384C163.85 327.384 161.962 326.904 160.362 325.944C158.762 324.952 157.514 323.56 156.618 321.768C155.754 319.944 155.322 317.8 155.322 315.336C155.322 312.904 155.754 310.792 156.618 309C157.514 307.176 158.762 305.768 160.362 304.776C161.962 303.784 163.85 303.288 166.026 303.288C168.234 303.288 170.138 303.784 171.738 304.776C173.338 305.768 174.57 307.176 175.434 309C176.33 310.792 176.778 312.904 176.778 315.336C176.778 317.8 176.33 319.944 175.434 321.768C174.57 323.56 173.338 324.952 171.738 325.944C170.138 326.904 168.234 327.384 166.026 327.384ZM166.026 324.936C168.394 324.936 170.282 324.104 171.69 322.44C173.098 320.744 173.802 318.376 173.802 315.336C173.802 312.296 173.098 309.944 171.69 308.28C170.282 306.616 168.394 305.784 166.026 305.784C163.658 305.784 161.77 306.616 160.362 308.28C158.986 309.944 158.298 312.296 158.298 315.336C158.298 318.376 158.986 320.744 160.362 322.44C161.77 324.104 163.658 324.936 166.026 324.936ZM182.532 297.576V293.88H186.468V297.576H182.532ZM183.012 327V303.72H185.94V327H183.012ZM193.653 327V303.72H196.533V307.896C197.301 306.36 198.405 305.208 199.845 304.44C201.285 303.672 202.885 303.288 204.645 303.288C210.181 303.288 212.949 306.296 212.949 312.312V327H210.021V312.552C210.021 310.248 209.557 308.552 208.629 307.464C207.701 306.376 206.229 305.832 204.213 305.832C201.909 305.832 200.053 306.552 198.645 307.992C197.269 309.4 196.581 311.304 196.581 313.704V327H193.653ZM229.296 327.384C226.704 327.384 224.752 326.68 223.44 325.272C222.16 323.864 221.52 321.848 221.52 319.224V306.072H216.912V303.72H221.52V296.52H224.448V303.72H231.984V306.072H224.448V318.84C224.448 320.792 224.848 322.28 225.648 323.304C226.448 324.328 227.776 324.84 229.632 324.84C230.176 324.84 230.704 324.776 231.216 324.648C231.728 324.52 232.176 324.376 232.56 324.216L233.136 326.52C232.784 326.744 232.224 326.936 231.456 327.096C230.688 327.288 229.968 327.384 229.296 327.384ZM235.693 315.48V312.984H248.749V315.48H235.693ZM262.862 327V295.8H250.238V293.16H278.462V295.8H265.838V327H262.862ZM288.042 327.384C285.866 327.384 283.978 326.904 282.378 325.944C280.778 324.952 279.53 323.56 278.634 321.768C277.77 319.944 277.338 317.8 277.338 315.336C277.338 312.904 277.77 310.792 278.634 309C279.53 307.176 280.778 305.768 282.378 304.776C283.978 303.784 285.866 303.288 288.042 303.288C290.25 303.288 292.154 303.784 293.754 304.776C295.354 305.768 296.586 307.176 297.45 309C298.346 310.792 298.794 312.904 298.794 315.336C298.794 317.8 298.346 319.944 297.45 321.768C296.586 323.56 295.354 324.952 293.754 325.944C292.154 326.904 290.25 327.384 288.042 327.384ZM288.042 324.936C290.41 324.936 292.298 324.104 293.706 322.44C295.114 320.744 295.818 318.376 295.818 315.336C295.818 312.296 295.114 309.944 293.706 308.28C292.298 306.616 290.41 305.784 288.042 305.784C285.674 305.784 283.786 306.616 282.378 308.28C281.002 309.944 280.314 312.296 280.314 315.336C280.314 318.376 281.002 320.744 282.378 322.44C283.786 324.104 285.674 324.936 288.042 324.936ZM305.443 315.48V312.984H318.499V315.48H305.443ZM326.463 327V293.16H339.231C342.847 293.16 345.599 294.024 347.487 295.752C349.407 297.48 350.367 299.944 350.367 303.144C350.367 306.312 349.407 308.776 347.487 310.536C345.599 312.264 342.847 313.128 339.231 313.128H329.391V327H326.463ZM329.391 310.536H338.991C344.591 310.536 347.391 308.072 347.391 303.144C347.391 298.184 344.591 295.704 338.991 295.704H329.391V310.536ZM364.073 327.384C361.897 327.384 360.009 326.904 358.409 325.944C356.809 324.952 355.561 323.56 354.665 321.768C353.801 319.944 353.369 317.8 353.369 315.336C353.369 312.904 353.801 310.792 354.665 309C355.561 307.176 356.809 305.768 358.409 304.776C360.009 303.784 361.897 303.288 364.073 303.288C366.281 303.288 368.185 303.784 369.785 304.776C371.385 305.768 372.617 307.176 373.481 309C374.377 310.792 374.825 312.904 374.825 315.336C374.825 317.8 374.377 319.944 373.481 321.768C372.617 323.56 371.385 324.952 369.785 325.944C368.185 326.904 366.281 327.384 364.073 327.384ZM364.073 324.936C366.441 324.936 368.329 324.104 369.737 322.44C371.145 320.744 371.849 318.376 371.849 315.336C371.849 312.296 371.145 309.944 369.737 308.28C368.329 306.616 366.441 305.784 364.073 305.784C361.705 305.784 359.817 306.616 358.409 308.28C357.033 309.944 356.345 312.296 356.345 315.336C356.345 318.376 357.033 320.744 358.409 322.44C359.817 324.104 361.705 324.936 364.073 324.936ZM380.579 297.576V293.88H384.515V297.576H380.579ZM381.059 327V303.72H383.987V327H381.059ZM391.699 327V303.72H394.579V307.896C395.347 306.36 396.451 305.208 397.891 304.44C399.331 303.672 400.931 303.288 402.691 303.288C408.227 303.288 410.995 306.296 410.995 312.312V327H408.067V312.552C408.067 310.248 407.603 308.552 406.675 307.464C405.747 306.376 404.275 305.832 402.259 305.832C399.955 305.832 398.099 306.552 396.691 307.992C395.315 309.4 394.627 311.304 394.627 313.704V327H391.699ZM427.343 327.384C424.751 327.384 422.799 326.68 421.487 325.272C420.207 323.864 419.567 321.848 419.567 319.224V306.072H414.959V303.72H419.567V296.52H422.495V303.72H430.031V306.072H422.495V318.84C422.495 320.792 422.895 322.28 423.695 323.304C424.495 324.328 425.823 324.84 427.679 324.84C428.223 324.84 428.751 324.776 429.263 324.648C429.775 324.52 430.223 324.376 430.607 324.216L431.183 326.52C430.831 326.744 430.271 326.936 429.503 327.096C428.735 327.288 428.015 327.384 427.343 327.384ZM453.26 336.168C451.404 332.616 450.028 329.048 449.132 325.464C448.236 321.848 447.788 318.152 447.788 314.376C447.788 310.6 448.236 306.92 449.132 303.336C450.028 299.752 451.404 296.168 453.26 292.584L455.516 293.4C452.444 300.376 450.908 307.368 450.908 314.376C450.908 321.384 452.444 328.376 455.516 335.352L453.26 336.168ZM472.164 327.384C469.54 327.384 467.172 327.048 465.06 326.376C462.98 325.672 461.172 324.648 459.636 323.304L460.788 320.856C462.452 322.168 464.148 323.144 465.876 323.784C467.636 324.392 469.732 324.696 472.164 324.696C475.204 324.696 477.476 324.104 478.98 322.92C480.516 321.736 481.284 320.184 481.284 318.264C481.284 316.664 480.724 315.416 479.604 314.52C478.516 313.624 476.708 312.92 474.18 312.408L469.332 311.4C466.324 310.792 464.068 309.768 462.564 308.328C461.092 306.888 460.355 304.968 460.355 302.568C460.355 300.616 460.852 298.904 461.844 297.432C462.868 295.96 464.276 294.824 466.068 294.024C467.86 293.192 469.924 292.776 472.26 292.776C476.932 292.776 480.66 294.184 483.444 297L482.292 299.4C480.82 298.024 479.284 297.032 477.684 296.424C476.084 295.784 474.276 295.464 472.26 295.464C469.572 295.464 467.412 296.104 465.78 297.384C464.18 298.664 463.38 300.376 463.38 302.52C463.38 304.216 463.892 305.56 464.916 306.552C465.94 307.512 467.588 308.216 469.859 308.664L474.756 309.672C477.988 310.344 480.388 311.352 481.956 312.696C483.524 314.008 484.307 315.816 484.307 318.12C484.307 319.944 483.812 321.56 482.82 322.968C481.86 324.344 480.468 325.432 478.644 326.232C476.82 327 474.66 327.384 472.164 327.384ZM498.968 327.384C496.376 327.384 494.424 326.68 493.112 325.272C491.832 323.864 491.192 321.848 491.192 319.224V306.072H486.584V303.72H491.192V296.52H494.12V303.72H501.656V306.072H494.12V318.84C494.12 320.792 494.52 322.28 495.32 323.304C496.12 324.328 497.448 324.84 499.304 324.84C499.848 324.84 500.376 324.776 500.888 324.648C501.4 324.52 501.848 324.376 502.232 324.216L502.808 326.52C502.456 326.744 501.896 326.936 501.128 327.096C500.36 327.288 499.64 327.384 498.968 327.384ZM513.462 327.384C511.894 327.384 510.486 327.08 509.238 326.472C508.022 325.864 507.046 325.032 506.31 323.976C505.606 322.92 505.254 321.736 505.254 320.424C505.254 318.696 505.686 317.352 506.55 316.392C507.414 315.4 508.87 314.696 510.918 314.28C512.966 313.864 515.782 313.656 519.366 313.656H520.854V311.928C520.854 309.784 520.422 308.232 519.558 307.272C518.694 306.28 517.318 305.784 515.43 305.784C514.022 305.784 512.662 305.992 511.35 306.408C510.07 306.824 508.742 307.48 507.366 308.376L506.214 306.12C507.43 305.256 508.87 304.568 510.534 304.056C512.198 303.544 513.814 303.288 515.382 303.288C518.198 303.288 520.278 304.008 521.622 305.448C522.998 306.888 523.686 309.096 523.686 312.072V327H520.902V322.824C520.262 324.264 519.286 325.384 517.974 326.184C516.694 326.984 515.19 327.384 513.462 327.384ZM513.846 325.032C515.222 325.032 516.422 324.712 517.446 324.072C518.502 323.4 519.334 322.488 519.942 321.336C520.55 320.184 520.854 318.872 520.854 317.4V315.816H519.414C516.534 315.816 514.278 315.944 512.646 316.2C511.046 316.456 509.926 316.904 509.286 317.544C508.646 318.184 508.326 319.064 508.326 320.184C508.326 321.624 508.822 322.792 509.814 323.688C510.806 324.584 512.15 325.032 513.846 325.032ZM531.34 327V303.72H534.22V307.944C534.892 306.472 535.868 305.352 537.148 304.584C538.428 303.816 540.06 303.368 542.044 303.24L543.244 303.144L543.532 305.688L541.468 305.928C539.196 306.12 537.436 306.872 536.188 308.184C534.94 309.464 534.316 311.192 534.316 313.368V327H531.34ZM544.927 329.832L542.527 329.112L554.767 291.096L557.215 291.816L544.927 329.832ZM571.257 327.384C568.633 327.384 566.265 327.048 564.153 326.376C562.073 325.672 560.265 324.648 558.729 323.304L559.881 320.856C561.545 322.168 563.241 323.144 564.969 323.784C566.729 324.392 568.825 324.696 571.257 324.696C574.297 324.696 576.569 324.104 578.073 322.92C579.609 321.736 580.377 320.184 580.377 318.264C580.377 316.664 579.817 315.416 578.697 314.52C577.609 313.624 575.801 312.92 573.273 312.408L568.425 311.4C565.417 310.792 563.161 309.768 561.657 308.328C560.185 306.888 559.449 304.968 559.449 302.568C559.449 300.616 559.945 298.904 560.937 297.432C561.961 295.96 563.369 294.824 565.161 294.024C566.953 293.192 569.017 292.776 571.353 292.776C576.025 292.776 579.753 294.184 582.537 297L581.385 299.4C579.913 298.024 578.377 297.032 576.777 296.424C575.177 295.784 573.369 295.464 571.353 295.464C568.665 295.464 566.505 296.104 564.873 297.384C563.273 298.664 562.473 300.376 562.473 302.52C562.473 304.216 562.985 305.56 564.009 306.552C565.033 307.512 566.681 308.216 568.953 308.664L573.849 309.672C577.081 310.344 579.481 311.352 581.049 312.696C582.617 314.008 583.401 315.816 583.401 318.12C583.401 319.944 582.905 321.56 581.913 322.968C580.953 324.344 579.561 325.432 577.737 326.232C575.913 327 573.753 327.384 571.257 327.384ZM589.278 335.64V303.72H592.206V308.088C592.91 306.616 593.966 305.448 595.374 304.584C596.814 303.72 598.478 303.288 600.366 303.288C602.446 303.288 604.254 303.784 605.79 304.776C607.358 305.768 608.558 307.16 609.39 308.952C610.254 310.744 610.686 312.872 610.686 315.336C610.686 317.8 610.254 319.944 609.39 321.768C608.558 323.56 607.358 324.952 605.79 325.944C604.254 326.904 602.446 327.384 600.366 327.384C598.478 327.384 596.814 326.968 595.374 326.136C593.966 325.304 592.91 324.152 592.206 322.68V335.64H589.278ZM599.934 324.936C602.302 324.936 604.19 324.104 605.598 322.44C607.006 320.744 607.71 318.376 607.71 315.336C607.71 312.296 607.006 309.944 605.598 308.28C604.19 306.616 602.302 305.784 599.934 305.784C597.566 305.784 595.678 306.616 594.27 308.28C592.862 309.944 592.158 312.296 592.158 315.336C592.158 318.376 592.862 320.744 594.27 322.44C595.678 324.104 597.566 324.936 599.934 324.936ZM624.087 327.384C622.519 327.384 621.111 327.08 619.863 326.472C618.647 325.864 617.671 325.032 616.935 323.976C616.231 322.92 615.879 321.736 615.879 320.424C615.879 318.696 616.311 317.352 617.175 316.392C618.039 315.4 619.495 314.696 621.543 314.28C623.591 313.864 626.407 313.656 629.991 313.656H631.479V311.928C631.479 309.784 631.047 308.232 630.183 307.272C629.319 306.28 627.943 305.784 626.055 305.784C624.647 305.784 623.287 305.992 621.975 306.408C620.695 306.824 619.367 307.48 617.991 308.376L616.839 306.12C618.055 305.256 619.495 304.568 621.159 304.056C622.823 303.544 624.439 303.288 626.007 303.288C628.823 303.288 630.903 304.008 632.247 305.448C633.623 306.888 634.311 309.096 634.311 312.072V327H631.527V322.824C630.887 324.264 629.911 325.384 628.599 326.184C627.319 326.984 625.815 327.384 624.087 327.384ZM624.471 325.032C625.847 325.032 627.047 324.712 628.071 324.072C629.127 323.4 629.959 322.488 630.567 321.336C631.175 320.184 631.479 318.872 631.479 317.4V315.816H630.039C627.159 315.816 624.903 315.944 623.271 316.2C621.671 316.456 620.551 316.904 619.911 317.544C619.271 318.184 618.951 319.064 618.951 320.184C618.951 321.624 619.447 322.792 620.439 323.688C621.431 324.584 622.775 325.032 624.471 325.032ZM652.093 336.024C648.029 336.024 644.653 334.952 641.965 332.808L643.069 330.6C644.541 331.656 645.965 332.408 647.341 332.856C648.717 333.336 650.269 333.576 651.997 333.576C654.333 333.576 656.109 332.936 657.325 331.656C658.541 330.376 659.149 328.52 659.149 326.088V321.576C658.477 323.112 657.405 324.312 655.933 325.176C654.493 326.04 652.845 326.472 650.989 326.472C648.813 326.472 646.941 325.992 645.373 325.032C643.837 324.04 642.637 322.68 641.773 320.952C640.941 319.192 640.525 317.16 640.525 314.856C640.525 312.552 640.941 310.536 641.773 308.808C642.637 307.08 643.837 305.736 645.373 304.776C646.941 303.784 648.813 303.288 650.989 303.288C652.845 303.288 654.493 303.72 655.933 304.584C657.373 305.448 658.429 306.632 659.101 308.136V303.72H661.981V325.656C661.981 332.568 658.685 336.024 652.093 336.024ZM651.325 323.976C653.725 323.976 655.629 323.16 657.037 321.528C658.445 319.864 659.149 317.64 659.149 314.856C659.149 312.072 658.445 309.864 657.037 308.232C655.629 306.6 653.725 305.784 651.325 305.784C648.893 305.784 646.973 306.6 645.565 308.232C644.189 309.864 643.501 312.072 643.501 314.856C643.501 317.64 644.189 319.864 645.565 321.528C646.973 323.16 648.893 323.976 651.325 323.976ZM669.715 327V293.16H672.643V307.752C673.443 306.28 674.547 305.176 675.955 304.44C677.395 303.672 678.979 303.288 680.707 303.288C686.243 303.288 689.011 306.296 689.011 312.312V327H686.083V312.552C686.083 310.248 685.619 308.552 684.691 307.464C683.763 306.376 682.291 305.832 680.275 305.832C677.971 305.832 676.115 306.552 674.707 307.992C673.331 309.4 672.643 311.304 672.643 313.704V327H669.715ZM706.702 327.384C703.118 327.384 700.286 326.328 698.206 324.216C696.158 322.072 695.134 319.144 695.134 315.432C695.134 313.032 695.598 310.92 696.526 309.096C697.454 307.272 698.734 305.848 700.366 304.824C702.03 303.8 703.934 303.288 706.078 303.288C709.182 303.288 711.598 304.296 713.326 306.312C715.054 308.328 715.918 311.096 715.918 314.616V315.96H698.014C698.11 318.84 698.894 321.064 700.366 322.632C701.87 324.168 703.95 324.936 706.606 324.936C708.046 324.936 709.39 324.712 710.638 324.264C711.918 323.816 713.166 323.064 714.382 322.008L715.534 324.216C714.51 325.208 713.198 325.992 711.598 326.568C709.998 327.112 708.366 327.384 706.702 327.384ZM706.126 305.64C703.694 305.64 701.79 306.408 700.414 307.944C699.07 309.448 698.286 311.4 698.062 313.8H713.278C713.214 311.24 712.574 309.24 711.358 307.8C710.142 306.36 708.398 305.64 706.126 305.64ZM730.671 327.384C728.079 327.384 726.127 326.68 724.815 325.272C723.535 323.864 722.895 321.848 722.895 319.224V306.072H718.287V303.72H722.895V296.52H725.823V303.72H733.359V306.072H725.823V318.84C725.823 320.792 726.223 322.28 727.023 323.304C727.823 324.328 729.151 324.84 731.007 324.84C731.551 324.84 732.079 324.776 732.591 324.648C733.103 324.52 733.551 324.376 733.935 324.216L734.511 326.52C734.159 326.744 733.599 326.936 732.831 327.096C732.063 327.288 731.343 327.384 730.671 327.384ZM746.468 327.384C743.876 327.384 741.924 326.68 740.612 325.272C739.332 323.864 738.692 321.848 738.692 319.224V306.072H734.084V303.72H738.692V296.52H741.62V303.72H749.156V306.072H741.62V318.84C741.62 320.792 742.02 322.28 742.82 323.304C743.62 324.328 744.948 324.84 746.804 324.84C747.348 324.84 747.876 324.776 748.388 324.648C748.9 324.52 749.348 324.376 749.732 324.216L750.308 326.52C749.956 326.744 749.396 326.936 748.628 327.096C747.86 327.288 747.14 327.384 746.468 327.384ZM753.282 297.576V293.88H757.218V297.576H753.282ZM753.762 327V303.72H756.69V327H753.762ZM764.451 336.168L762.243 335.352C765.283 328.28 766.803 321.288 766.803 314.376C766.803 307.464 765.283 300.472 762.243 293.4L764.451 292.584C766.339 296.168 767.731 299.768 768.627 303.384C769.523 306.968 769.971 310.632 769.971 314.376C769.971 318.152 769.523 321.848 768.627 325.464C767.731 329.048 766.339 332.616 764.451 336.168ZM128.416 392V358.16H131.344V392H128.416ZM139.606 392V368.72H142.486V372.896C143.254 371.36 144.358 370.208 145.798 369.44C147.238 368.672 148.838 368.288 150.598 368.288C156.134 368.288 158.902 371.296 158.902 377.312V392H155.974V377.552C155.974 375.248 155.51 373.552 154.582 372.464C153.654 371.376 152.182 370.832 150.166 370.832C147.862 370.832 146.006 371.552 144.598 372.992C143.222 374.4 142.534 376.304 142.534 378.704V392H139.606ZM175.249 392.384C172.657 392.384 170.705 391.68 169.393 390.272C168.113 388.864 167.473 386.848 167.473 384.224V371.072H162.865V368.72H167.473V361.52H170.401V368.72H177.937V371.072H170.401V383.84C170.401 385.792 170.801 387.28 171.601 388.304C172.401 389.328 173.729 389.84 175.585 389.84C176.129 389.84 176.657 389.776 177.169 389.648C177.681 389.52 178.129 389.376 178.513 389.216L179.089 391.52C178.737 391.744 178.177 391.936 177.409 392.096C176.641 392.288 175.921 392.384 175.249 392.384ZM192.437 392.384C188.853 392.384 186.021 391.328 183.941 389.216C181.893 387.072 180.869 384.144 180.869 380.432C180.869 378.032 181.333 375.92 182.261 374.096C183.189 372.272 184.469 370.848 186.101 369.824C187.765 368.8 189.669 368.288 191.813 368.288C194.917 368.288 197.333 369.296 199.061 371.312C200.789 373.328 201.653 376.096 201.653 379.616V380.96H183.749C183.845 383.84 184.629 386.064 186.101 387.632C187.605 389.168 189.685 389.936 192.341 389.936C193.781 389.936 195.125 389.712 196.373 389.264C197.653 388.816 198.901 388.064 200.117 387.008L201.269 389.216C200.245 390.208 198.933 390.992 197.333 391.568C195.733 392.112 194.101 392.384 192.437 392.384ZM191.861 370.64C189.429 370.64 187.525 371.408 186.149 372.944C184.805 374.448 184.021 376.4 183.797 378.8H199.013C198.949 376.24 198.309 374.24 197.093 372.8C195.877 371.36 194.133 370.64 191.861 370.64ZM217.749 401.024C213.685 401.024 210.309 399.952 207.621 397.808L208.725 395.6C210.197 396.656 211.621 397.408 212.997 397.856C214.373 398.336 215.925 398.576 217.653 398.576C219.989 398.576 221.765 397.936 222.981 396.656C224.197 395.376 224.805 393.52 224.805 391.088V386.576C224.133 388.112 223.061 389.312 221.589 390.176C220.149 391.04 218.501 391.472 216.645 391.472C214.469 391.472 212.597 390.992 211.029 390.032C209.493 389.04 208.293 387.68 207.429 385.952C206.597 384.192 206.181 382.16 206.181 379.856C206.181 377.552 206.597 375.536 207.429 373.808C208.293 372.08 209.493 370.736 211.029 369.776C212.597 368.784 214.469 368.288 216.645 368.288C218.501 368.288 220.149 368.72 221.589 369.584C223.029 370.448 224.085 371.632 224.757 373.136V368.72H227.637V390.656C227.637 397.568 224.341 401.024 217.749 401.024ZM216.981 388.976C219.381 388.976 221.285 388.16 222.693 386.528C224.101 384.864 224.805 382.64 224.805 379.856C224.805 377.072 224.101 374.864 222.693 373.232C221.285 371.6 219.381 370.784 216.981 370.784C214.549 370.784 212.629 371.6 211.221 373.232C209.845 374.864 209.157 377.072 209.157 379.856C209.157 382.64 209.845 384.864 211.221 386.528C212.629 388.16 214.549 388.976 216.981 388.976ZM235.371 392V368.72H238.251V372.944C238.923 371.472 239.899 370.352 241.179 369.584C242.459 368.816 244.091 368.368 246.075 368.24L247.275 368.144L247.563 370.688L245.499 370.928C243.227 371.12 241.467 371.872 240.219 373.184C238.971 374.464 238.347 376.192 238.347 378.368V392H235.371ZM258.743 392.384C257.175 392.384 255.767 392.08 254.519 391.472C253.303 390.864 252.327 390.032 251.591 388.976C250.887 387.92 250.535 386.736 250.535 385.424C250.535 383.696 250.967 382.352 251.831 381.392C252.695 380.4 254.151 379.696 256.199 379.28C258.247 378.864 261.063 378.656 264.647 378.656H266.135V376.928C266.135 374.784 265.703 373.232 264.839 372.272C263.975 371.28 262.599 370.784 260.711 370.784C259.303 370.784 257.943 370.992 256.631 371.408C255.351 371.824 254.023 372.48 252.647 373.376L251.495 371.12C252.711 370.256 254.151 369.568 255.815 369.056C257.479 368.544 259.095 368.288 260.663 368.288C263.479 368.288 265.559 369.008 266.903 370.448C268.279 371.888 268.967 374.096 268.967 377.072V392H266.183V387.824C265.543 389.264 264.567 390.384 263.255 391.184C261.975 391.984 260.471 392.384 258.743 392.384ZM259.127 390.032C260.503 390.032 261.703 389.712 262.727 389.072C263.783 388.4 264.615 387.488 265.223 386.336C265.831 385.184 266.135 383.872 266.135 382.4V380.816H264.695C261.815 380.816 259.559 380.944 257.927 381.2C256.327 381.456 255.207 381.904 254.567 382.544C253.927 383.184 253.607 384.064 253.607 385.184C253.607 386.624 254.103 387.792 255.095 388.688C256.087 389.584 257.431 390.032 259.127 390.032ZM285.405 392.384C282.813 392.384 280.861 391.68 279.549 390.272C278.269 388.864 277.629 386.848 277.629 384.224V371.072H273.021V368.72H277.629V361.52H280.557V368.72H288.093V371.072H280.557V383.84C280.557 385.792 280.957 387.28 281.757 388.304C282.557 389.328 283.885 389.84 285.741 389.84C286.285 389.84 286.813 389.776 287.325 389.648C287.837 389.52 288.285 389.376 288.669 389.216L289.245 391.52C288.893 391.744 288.333 391.936 287.565 392.096C286.797 392.288 286.077 392.384 285.405 392.384ZM292.219 362.576V358.88H296.155V362.576H292.219ZM292.699 392V368.72H295.627V392H292.699ZM312.604 392.384C310.428 392.384 308.54 391.904 306.94 390.944C305.34 389.952 304.092 388.56 303.196 386.768C302.332 384.944 301.9 382.8 301.9 380.336C301.9 377.904 302.332 375.792 303.196 374C304.092 372.176 305.34 370.768 306.94 369.776C308.54 368.784 310.428 368.288 312.604 368.288C314.812 368.288 316.716 368.784 318.316 369.776C319.916 370.768 321.148 372.176 322.012 374C322.908 375.792 323.356 377.904 323.356 380.336C323.356 382.8 322.908 384.944 322.012 386.768C321.148 388.56 319.916 389.952 318.316 390.944C316.716 391.904 314.812 392.384 312.604 392.384ZM312.604 389.936C314.972 389.936 316.86 389.104 318.268 387.44C319.676 385.744 320.38 383.376 320.38 380.336C320.38 377.296 319.676 374.944 318.268 373.28C316.86 371.616 314.972 370.784 312.604 370.784C310.236 370.784 308.348 371.616 306.94 373.28C305.564 374.944 304.876 377.296 304.876 380.336C304.876 383.376 305.564 385.744 306.94 387.44C308.348 389.104 310.236 389.936 312.604 389.936ZM329.59 392V368.72H332.47V372.896C333.238 371.36 334.342 370.208 335.782 369.44C337.222 368.672 338.822 368.288 340.582 368.288C346.118 368.288 348.886 371.296 348.886 377.312V392H345.958V377.552C345.958 375.248 345.494 373.552 344.566 372.464C343.638 371.376 342.166 370.832 340.15 370.832C337.846 370.832 335.99 371.552 334.582 372.992C333.206 374.4 332.518 376.304 332.518 378.704V392H329.59ZM369.168 392V358.16H371.664L385.104 383.648L398.448 358.16H400.944V392H398.208V363.872L386.16 386.768H384.048L371.856 363.92V392H369.168ZM418.495 392.384C416.319 392.384 414.431 391.904 412.831 390.944C411.231 389.952 409.983 388.56 409.087 386.768C408.223 384.944 407.791 382.8 407.791 380.336C407.791 377.904 408.223 375.792 409.087 374C409.983 372.176 411.231 370.768 412.831 369.776C414.431 368.784 416.319 368.288 418.495 368.288C420.703 368.288 422.607 368.784 424.207 369.776C425.807 370.768 427.039 372.176 427.903 374C428.799 375.792 429.247 377.904 429.247 380.336C429.247 382.8 428.799 384.944 427.903 386.768C427.039 388.56 425.807 389.952 424.207 390.944C422.607 391.904 420.703 392.384 418.495 392.384ZM418.495 389.936C420.863 389.936 422.751 389.104 424.159 387.44C425.567 385.744 426.271 383.376 426.271 380.336C426.271 377.296 425.567 374.944 424.159 373.28C422.751 371.616 420.863 370.784 418.495 370.784C416.127 370.784 414.239 371.616 412.831 373.28C411.455 374.944 410.767 377.296 410.767 380.336C410.767 383.376 411.455 385.744 412.831 387.44C414.239 389.104 416.127 389.936 418.495 389.936ZM444.361 392.384C442.249 392.384 440.425 391.904 438.889 390.944C437.353 389.952 436.153 388.56 435.289 386.768C434.457 384.944 434.041 382.8 434.041 380.336C434.041 376.656 434.969 373.728 436.825 371.552C438.681 369.376 441.193 368.288 444.361 368.288C446.217 368.288 447.849 368.72 449.257 369.584C450.697 370.416 451.769 371.568 452.473 373.04V358.16H455.401V392H452.521V387.584C451.817 389.088 450.745 390.272 449.305 391.136C447.897 391.968 446.249 392.384 444.361 392.384ZM444.745 389.936C447.113 389.936 449.001 389.104 450.409 387.44C451.817 385.744 452.521 383.376 452.521 380.336C452.521 377.296 451.817 374.944 450.409 373.28C449.001 371.616 447.113 370.784 444.745 370.784C442.377 370.784 440.489 371.616 439.081 373.28C437.705 374.944 437.017 377.296 437.017 380.336C437.017 383.376 437.705 385.744 439.081 387.44C440.489 389.104 442.377 389.936 444.745 389.936ZM473.218 392.384C469.634 392.384 466.802 391.328 464.722 389.216C462.674 387.072 461.65 384.144 461.65 380.432C461.65 378.032 462.114 375.92 463.042 374.096C463.97 372.272 465.25 370.848 466.882 369.824C468.546 368.8 470.45 368.288 472.594 368.288C475.698 368.288 478.114 369.296 479.842 371.312C481.57 373.328 482.434 376.096 482.434 379.616V380.96H464.53C464.626 383.84 465.41 386.064 466.882 387.632C468.386 389.168 470.466 389.936 473.122 389.936C474.562 389.936 475.906 389.712 477.154 389.264C478.434 388.816 479.682 388.064 480.898 387.008L482.05 389.216C481.026 390.208 479.714 390.992 478.114 391.568C476.514 392.112 474.882 392.384 473.218 392.384ZM472.642 370.64C470.21 370.64 468.306 371.408 466.93 372.944C465.586 374.448 464.802 376.4 464.578 378.8H479.794C479.73 376.24 479.09 374.24 477.874 372.8C476.658 371.36 474.914 370.64 472.642 370.64ZM495.171 392.384C492.995 392.384 491.315 391.728 490.131 390.416C488.979 389.072 488.403 387.152 488.403 384.656V358.16H491.331V384.32C491.331 388 492.771 389.84 495.651 389.84C496.451 389.84 497.187 389.744 497.859 389.552L497.763 392.096C496.835 392.288 495.971 392.384 495.171 392.384Z" fill="#054962"/>
<defs>
<linearGradient id="paint0_linear_114_904" x1="1381.05" y1="100.527" x2="1630.07" y2="544.589" gradientUnits="userSpaceOnUse">
<stop stop-color="#054962"/>
<stop offset="0.59375" stop-color="#00A69C"/>
<stop offset="1" stop-color="#D7DE29"/>
</linearGradient>
<linearGradient id="paint1_linear_114_904" x1="1376.8" y1="63.7532" x2="1712.33" y2="497.025" gradientUnits="userSpaceOnUse">
<stop stop-color="#054962"/>
<stop offset="0.59375" stop-color="#00A69C"/>
<stop offset="1" stop-color="#D7DE29"/>
</linearGradient>
<radialGradient id="paint2_radial_114_904" cx="0" cy="0" r="1" gradientUnits="userSpaceOnUse" gradientTransform="translate(1301.97 98.3513) scale(133.512 7530.77)">
<stop stop-color="#5ED0DE"/>
<stop offset="1" stop-color="#37CFB5"/>
</radialGradient>
<radialGradient id="paint3_radial_114_904" cx="0" cy="0" r="1" gradientUnits="userSpaceOnUse" gradientTransform="translate(1298.9 581.576) scale(133.512 7530.77)">
<stop stop-color="#5ED0DE"/>
<stop offset="1" stop-color="#37CFB5"/>
</radialGradient>
<radialGradient id="paint4_radial_114_904" cx="0" cy="0" r="1" gradientUnits="userSpaceOnUse" gradientTransform="translate(998.23 216.473) scale(133.512 7530.77)">
<stop stop-color="#5ED0DE"/>
<stop offset="1" stop-color="#37CFB5"/>
</radialGradient>
<radialGradient id="paint5_radial_114_904" cx="0" cy="0" r="1" gradientUnits="userSpaceOnUse" gradientTransform="translate(1001.3 469.59) scale(133.512 7530.77)">
<stop stop-color="#5ED0DE"/>
<stop offset="1" stop-color="#37CFB5"/>
</radialGradient>
<radialGradient id="paint6_radial_114_904" cx="0" cy="0" r="1" gradientUnits="userSpaceOnUse" gradientTransform="translate(1585.77 216.473) scale(133.512 7530.77)">
<stop stop-color="#5ED0DE"/>
<stop offset="1" stop-color="#37CFB5"/>
</radialGradient>
<radialGradient id="paint7_radial_114_904" cx="0" cy="0" r="1" gradientUnits="userSpaceOnUse" gradientTransform="translate(1578.1 469.59) scale(133.512 7530.77)">
<stop stop-color="#5ED0DE"/>
<stop offset="1" stop-color="#37CFB5"/>
</radialGradient>
</defs>
</svg>
